<svg width="64" height="64" viewBox="0 0 64 64" fill="none" xmlns="http://www.w3.org/2000/svg">
  <rect width="64" height="64" rx="12" fill="#0B0F16"/>
  <path d="M15 48V16H20.5L32 39.2V16H37V48H31.6L20 24.7V48H15Z" fill="#F8FAFC"/>
  <path d="M49.2 21.3C48.1 18.8 46.2 17.7 43.3 17.7C40.2 17.7 38 19.5 38 22.3C38 25.1 39.9 26.4 44.3 27.7C49.1 29.2 51.2 31.2 51.2 35C51.2 39.6 47.8 42.5 42.9 42.5C38.5 42.5 35.2 40.5 33.8 36.6L38.1 34.9C39.2 37.3 40.9 38.4 43.1 38.4C45.6 38.4 47.2 37.1 47.2 35.2C47.2 33 46.1 32 42.2 30.8C36.9 29.2 34 26.9 34 22.4C34 17.7 37.7 13.7 43.3 13.7C47.9 13.7 50.7 16 52.4 19.4L49.2 21.3Z" fill="#F8FAFC"/>
</svg>
